HIERARCHY
ROOT hip
{
  OFFSET 0.00112043 5.09927 -9.65472
  CHANNELS 6 Xposition Yposition Zposition Zrotation Xrotation Yrotation
  JOINT abdomen
  {
    OFFSET 0 -1.186 -1.5018
    CHANNELS 3 Zrotation Xrotation Yrotation
    JOINT abdomen2
    {
      OFFSET 0 9.964 0.2134
      CHANNELS 3 Zrotation Xrotation Yrotation
      JOINT chest
      {
        OFFSET 0 13.134 -3.2573
        CHANNELS 3 Zrotation Xrotation Yrotation
        JOINT neck
        {
          OFFSET 0 20.686 -1.6905
          CHANNELS 3 Zrotation Xrotation Yrotation
          JOINT head
          {
            OFFSET 0 7.238 -0.1237
            CHANNELS 3 Zrotation Xrotation Yrotation
            End Site
            {
              OFFSET 0 0 0
            }
          }
        }
        JOINT lCollar
        {
          OFFSET 1.7069 20.075 5.0056
          CHANNELS 3 Zrotation Xrotation Yrotation
          JOINT lShldr
          {
            OFFSET 13.6458 -0.047 -4.849
            CHANNELS 3 Zrotation Xrotation Yrotation
            JOINT lForeArm
            {
              OFFSET 28.3255 -0.9759 2.2888
              CHANNELS 3 Zrotation Xrotation Yrotation
              JOINT lHand
              {
                OFFSET 22.1583 -0.53 10.8316
                CHANNELS 3 Zrotation Xrotation Yrotation
                JOINT lThumb1
                {
                  OFFSET 0.786 0.112 2.5817
                  CHANNELS 3 Zrotation Xrotation Yrotation
                  JOINT lThumb2
                  {
                    OFFSET 0.3601 -0.878 4.2331
                    CHANNELS 3 Zrotation Xrotation Yrotation
                    JOINT lThumb2_End
                    {
                      OFFSET 1.8127 -1.216 2.2227
                      CHANNELS 3 Zrotation Xrotation Yrotation
                      End Site
                      {
                        OFFSET 0.0181 -0.0122 0.0222
                      }
                    }
                  }
                }
                JOINT lCarpal1
                {
                  OFFSET 0.9571 1.114 1.7695
                  CHANNELS 3 Zrotation Xrotation Yrotation
                  JOINT lIndex1
                  {
                    OFFSET 4.1246 0.487 4.1451
                    CHANNELS 3 Zrotation Xrotation Yrotation
                    JOINT lIndex2
                    {
                      OFFSET 3.4052 -1.454 2.7682
                      CHANNELS 3 Zrotation Xrotation Yrotation
                      JOINT lIndex2_End
                      {
                        OFFSET 1.4531 -1.795 1.2713
                        CHANNELS 3 Zrotation Xrotation Yrotation
                        End Site
                        {
                          OFFSET 0.0145 -0.0179 0.0127
                        }
                      }
                    }
                  }
                  JOINT lMid1
                  {
                    OFFSET 5.6954 0.21 2.1184
                    CHANNELS 3 Zrotation Xrotation Yrotation
                    JOINT lMid2
                    {
                      OFFSET 3.9766 -1.54 2.3863
                      CHANNELS 3 Zrotation Xrotation Yrotation
                      JOINT lMid2_End
                      {
                        OFFSET 1.4042 -1.926 1.125
                        CHANNELS 3 Zrotation Xrotation Yrotation
                        End Site
                        {
                          OFFSET 0.014 -0.0193 0.0113
                        }
                      }
                    }
                  }
                }
                JOINT lCarpal2
                {
                  OFFSET 2.0956 0.66 -0.3894
                  CHANNELS 3 Zrotation Xrotation Yrotation
                  JOINT lRing1
                  {
                    OFFSET 5.0395 -0.09 2.4971
                    CHANNELS 3 Zrotation Xrotation Yrotation
                    JOINT lRing2
                    {
                      OFFSET 3.7921 -1.552 1.4806
                      CHANNELS 3 Zrotation Xrotation Yrotation
                      JOINT lRing2_End
                      {
                        OFFSET 1.4655 -1.808 0.9609
                        CHANNELS 3 Zrotation Xrotation Yrotation
                        End Site
                        {
                          OFFSET 0.0147 -0.0181 0.0096
                        }
                      }
                    }
                  }
                  JOINT lPinky1
                  {
                    OFFSET 4.9141 -1.269 0.3591
                    CHANNELS 3 Zrotation Xrotation Yrotation
                    JOINT lPinky2
                    {
                      OFFSET 3.1477 -1.685 0.8462
                      CHANNELS 3 Zrotation Xrotation Yrotation
                      JOINT lPinky2_End
                      {
                        OFFSET 0.8055 -1.585 0.7955
                        CHANNELS 3 Zrotation Xrotation Yrotation
                        End Site
                        {
                          OFFSET 0.0081 -0.0158 0.008
                        }
                      }
                    }
                  }
                }
              }
            }
          }
        }
        JOINT rCollar
        {
          OFFSET -1.7069 20.075 5.0056
          CHANNELS 3 Zrotation Xrotation Yrotation
          JOINT rShldr
          {
            OFFSET -13.6458 -0.047 -4.849
            CHANNELS 3 Zrotation Xrotation Yrotation
            JOINT rForeArm
            {
              OFFSET -28.3255 -0.9759 2.2888
              CHANNELS 3 Zrotation Xrotation Yrotation
              JOINT rHand
              {
                OFFSET -22.1583 -0.53 10.8316
                CHANNELS 3 Zrotation Xrotation Yrotation
                JOINT rThumb1
                {
                  OFFSET -0.786 0.112 2.5817
                  CHANNELS 3 Zrotation Xrotation Yrotation
                  JOINT rThumb2
                  {
                    OFFSET -0.3601 -0.878 4.2331
                    CHANNELS 3 Zrotation Xrotation Yrotation
                    JOINT rThumb2_End
                    {
                      OFFSET -1.8127 -1.216 2.2227
                      CHANNELS 3 Zrotation Xrotation Yrotation
                      End Site
                      {
                        OFFSET -0.0181 -0.0122 0.0222
                      }
                    }
                  }
                }
                JOINT rCarpal1
                {
                  OFFSET -0.9571 1.114 1.7695
                  CHANNELS 3 Zrotation Xrotation Yrotation
                  JOINT rIndex1
                  {
                    OFFSET -4.1246 0.487 4.1451
                    CHANNELS 3 Zrotation Xrotation Yrotation
                    JOINT rIndex2
                    {
                      OFFSET -3.4052 -1.454 2.7682
                      CHANNELS 3 Zrotation Xrotation Yrotation
                      JOINT rIndex2_End
                      {
                        OFFSET -1.4531 -1.795 1.2713
                        CHANNELS 3 Zrotation Xrotation Yrotation
                        End Site
                        {
                          OFFSET -0.0145 -0.018 0.0127
                        }
                      }
                    }
                  }
                  JOINT rMid1
                  {
                    OFFSET -5.6954 0.21 2.1184
                    CHANNELS 3 Zrotation Xrotation Yrotation
                    JOINT rMid2
                    {
                      OFFSET -3.9766 -1.54 2.3863
                      CHANNELS 3 Zrotation Xrotation Yrotation
                      JOINT rMid2_End
                      {
                        OFFSET -1.4042 -1.926 1.125
                        CHANNELS 3 Zrotation Xrotation Yrotation
                        End Site
                        {
                          OFFSET -0.014 -0.0193 0.0113
                        }
                      }
                    }
                  }
                }
                JOINT rCarpal2
                {
                  OFFSET -2.0956 0.66 -0.3894
                  CHANNELS 3 Zrotation Xrotation Yrotation
                  JOINT rRing1
                  {
                    OFFSET -5.0395 -0.09 2.4971
                    CHANNELS 3 Zrotation Xrotation Yrotation
                    JOINT rRing2
                    {
                      OFFSET -3.7921 -1.552 1.4806
                      CHANNELS 3 Zrotation Xrotation Yrotation
                      JOINT rRing2_End
                      {
                        OFFSET -1.4655 -1.808 0.9609
                        CHANNELS 3 Zrotation Xrotation Yrotation
                        End Site
                        {
                          OFFSET -0.0147 -0.0181 0.0096
                        }
                      }
                    }
                  }
                  JOINT rPinky1
                  {
                    OFFSET -4.9141 -1.269 0.3592
                    CHANNELS 3 Zrotation Xrotation Yrotation
                    JOINT rPinky2
                    {
                      OFFSET -3.1477 -1.685 0.8462
                      CHANNELS 3 Zrotation Xrotation Yrotation
                      JOINT rPinky2_End
                      {
                        OFFSET -0.8055 -1.585 0.7955
                        CHANNELS 3 Zrotation Xrotation Yrotation
                        End Site
                        {
                          OFFSET -0.0081 -0.0158 0.008
                        }
                      }
                    }
                  }
                }
              }
            }
          }
        }
      }
    }
  }
  JOINT lThigh
  {
    OFFSET 8.367 -8.2066 0.5982
    CHANNELS 3 Zrotation Xrotation Yrotation
    JOINT lShin
    {
      OFFSET 2.1923 -43.463 -0.4932
      CHANNELS 3 Zrotation Xrotation Yrotation
      JOINT lFoot
      {
        OFFSET 0.7333 -45.8593 -2.6451
        CHANNELS 3 Zrotation Xrotation Yrotation
        End Site
        {
          OFFSET 2.6618 -4.2699 12.3931
        }
      }
    }
  }
  JOINT rThigh
  {
    OFFSET -8.367 -8.2066 0.5982
    CHANNELS 3 Zrotation Xrotation Yrotation
    JOINT rShin
    {
      OFFSET -2.1923 -43.463 -0.4931
      CHANNELS 3 Zrotation Xrotation Yrotation
      JOINT rFoot
      {
        OFFSET -0.7333 -45.8593 -2.6451
        CHANNELS 3 Zrotation Xrotation Yrotation
        End Site
        {
          OFFSET -2.6618 -4.2699 12.3931
        }
      }
    }
  }
}
MOTION
Frames:	4
Frame Time:	0.0333333
0 -0.3129 2.51682 0 0 -0 0 0 -0 0 0 -0 0 0 -0 0 0 -0 0 0 -0 0 0 -0 1.66051 0.0835086 5.75766 -0.0175111 0.895433 15.7816 7.95139e-016 -1.98785e-016 -0 5.46658e-016 -3.97569e-016 -0 5.96354e-016 0 -0 3.97569e-016 1.98785e-016 9.54166e-015 1.49089e-016 -3.97569e-016 -0 6.4605e-016 0 3.18055e-015 5.96354e-016 0 3.18055e-015 8.94531e-016 -1.98785e-016 6.36111e-015 6.4605e-016 0 3.18055e-015 5.96354e-016 0 3.18055e-015 8.94531e-016 -1.98785e-016 6.36111e-015 1.49089e-016 -3.97569e-016 -0 6.4605e-016 0 3.18055e-015 5.96354e-016 0 3.18055e-015 8.94531e-016 -1.98785e-016 6.36111e-015 6.4605e-016 0 3.18055e-015 5.96354e-016 0 3.18055e-015 8.94531e-016 -1.98785e-016 6.36111e-015 0 0 -0 -1.4496 0.0636048 -5.0245 -1.74811 1.20616 -16.8394 -1.19271e-015 1.98785e-016 -3.18055e-015 -3.97569e-016 1.98785e-016 -3.18055e-015 -2.98177e-016 1.98785e-016 -3.18055e-015 -2.98177e-016 3.97569e-016 -0 4.96962e-016 0 -6.36111e-015 -9.93923e-017 3.97569e-016 -0 -8.94531e-016 5.96354e-016 -0 -3.97569e-016 3.97569e-016 -0 -9.93923e-017 3.97569e-016 -0 -8.94531e-016 5.96354e-016 -0 -3.97569e-016 3.97569e-016 -0 4.96962e-016 0 -6.36111e-015 -9.93923e-017 3.97569e-016 -0 -8.94531e-016 5.96354e-016 -0 -3.97569e-016 3.97569e-016 -0 -9.93923e-017 3.97569e-016 -0 -8.94531e-016 5.96354e-016 -0 -3.97569e-016 3.97569e-016 -0 -4.66111 -0.998717 0.12318 0.00986924 1.54847 0.176523 4.65186 -0.572283 -0.254274 4.66111 -0.998582 -0.123182 -0.00986898 1.54833 -0.176521 -4.65186 -0.572281 0.254274 
-0.0694251 -4.44399 7.49945 0 15.997 -0 -0.255166 6.4646 -0.171628 -0.495478 12.9299 -0.317124 -0.495478 12.9299 -0.317123 3.05381e-006 6.99713 -1.08103e-006 -3.40246e-007 17.9984 1.25454e-009 2.97585 -2.57704 3.53691 -76.2534 -1.8177 7.2003 -22.7026 5.84679 21.6635 1.75973 0.576155 -28.9033 3.97569e-016 1.19271e-015 -9.54166e-015 -3.97569e-016 1.98785e-015 -9.54166e-015 3.31043e-031 1.98785e-015 -9.54166e-015 3.97569e-016 0 -9.54166e-015 1.59028e-015 1.98785e-015 9.54166e-015 -3.97569e-016 1.19271e-015 -1.27222e-014 -3.97569e-016 1.98785e-015 -1.27222e-014 1.59028e-015 1.98785e-015 9.54166e-015 -3.97569e-016 1.19271e-015 -1.27222e-014 -3.97569e-016 1.98785e-015 -1.27222e-014 3.97569e-016 0 -9.54166e-015 1.59028e-015 1.98785e-015 9.54166e-015 -3.97569e-016 1.19271e-015 -1.27222e-014 -3.97569e-016 1.98785e-015 -1.27222e-014 1.59028e-015 1.98785e-015 9.54166e-015 -3.97569e-016 1.19271e-015 -1.27222e-014 -3.97569e-016 1.98785e-015 -1.27222e-014 11.3022 -1.4534 7.8516 52.976 25.1941 28.1942 0.578384 3.8752 20.3545 14.1773 -15.0748 8.15024 3.97569e-016 6.36111e-015 7.95139e-016 3.97569e-016 0 -0 3.51326e-006 -1.99386e-006 2.57749e-006 7.95139e-016 3.18055e-015 -0 1.59028e-015 0 6.36111e-015 -1.19271e-015 3.18055e-015 7.95139e-016 3.51326e-006 -1.99386e-006 2.57749e-006 1.59028e-015 0 6.36111e-015 -1.19271e-015 3.18055e-015 7.95139e-016 3.51326e-006 -1.99386e-006 2.57749e-006 7.95139e-016 3.18055e-015 -0 1.59028e-015 0 6.36111e-015 -1.19271e-015 3.18055e-015 7.95139e-016 3.51326e-006 -1.99386e-006 2.57749e-006 1.59028e-015 0 6.36111e-015 -1.19271e-015 3.18055e-015 7.95139e-016 3.51326e-006 -1.99386e-006 2.57749e-006 -1.18886 -14.9536 13.8624 36.802 78.0805 -34.0601 -36.4652 65.7457 58.4131 1.4016 -17.4389 -14.4082 -80.0605 83.4279 77.2026 11.6385 37.8511 -15.6846 
-0.0696279 -4.48629 7.37775 0 16.7732 -0 -0.255059 5.89675 -0.172983 -0.496084 11.7942 -0.321991 -0.496084 11.7942 -0.321991 2.55846e-005 6.60747 -1.98531e-006 -8.10766e-008 17.0019 3.65716e-008 3.29313 -0.637568 3.76831 -76.2534 -1.81772 7.2003 -23.1084 5.97676 21.6732 2.2264 0.879438 -28.8569 -6.44765e-006 -2.99227e-006 6.101e-006 -4.41391e-032 -7.95139e-016 -3.18055e-015 -3.97569e-016 -7.95139e-016 -3.18055e-015 7.95139e-016 -3.97569e-016 -0 -6.44765e-006 -2.99227e-006 6.101e-006 -1.19271e-015 -7.95139e-016 -0 -7.95139e-016 -7.95139e-016 -9.54166e-015 -6.44765e-006 -2.99227e-006 6.101e-006 -1.19271e-015 -7.95139e-016 -0 -7.95139e-016 -7.95139e-016 -9.54166e-015 7.95139e-016 -3.97569e-016 -0 -6.44765e-006 -2.99227e-006 6.101e-006 -1.19271e-015 -7.95139e-016 -0 -7.95139e-016 -7.95139e-016 -9.54166e-015 -6.44765e-006 -2.99227e-006 6.101e-006 -1.19271e-015 -7.95139e-016 -0 -7.95139e-016 -7.95139e-016 -9.54166e-015 10.2234 -0.88352 7.71336 55.0859 25.8672 26.9264 0.563626 3.89141 20.3566 13.7388 -16.7247 6.98158 6.61901e-006 1.43013e-006 3.42052e-006 1.98785e-015 6.36111e-015 7.95139e-016 -2.3627e-007 -9.54386e-007 1.36364e-006 3.18055e-015 -6.36111e-015 1.59028e-015 6.61901e-006 1.43013e-006 3.42052e-006 -5.56597e-015 0 1.59028e-015 -2.3627e-007 -9.54386e-007 1.36364e-006 6.61901e-006 1.43013e-006 3.42052e-006 -5.56597e-015 0 1.59028e-015 -2.3627e-007 -9.54386e-007 1.36364e-006 3.18055e-015 -6.36111e-015 1.59028e-015 6.61901e-006 1.43013e-006 3.42052e-006 -5.56597e-015 0 1.59028e-015 -2.3627e-007 -9.54386e-007 1.36364e-006 6.61901e-006 1.43013e-006 3.42052e-006 -5.56597e-015 0 1.59028e-015 -2.3627e-007 -9.54386e-007 1.36364e-006 -1.15101 -16.0304 13.9406 37.8324 78.3005 -35.0588 -36.4953 65.7542 58.4459 1.34887 -18.4991 -14.5032 -82.4542 83.4398 79.5693 11.6483 37.8748 -15.7008 
-0.069812 -4.52932 7.25536 0 17.5501 -0 -0.254736 5.31443 -0.17427 -0.496381 10.6296 -0.326814 -0.496382 10.6296 -0.326814 9.61139e-006 6.21977 7.85678e-007 -9.35838e-008 16.0042 -2.62582e-007 3.60414 1.31255 3.99008 -76.2533 -1.81771 7.2003 -23.5134 6.11012 21.6828 2.69302 1.18325 -28.8128 -1.59028e-015 0 -3.18055e-015 -1.59028e-015 0 -6.36111e-015 -1.19271e-015 0 3.18055e-015 -7.95139e-016 -3.97569e-016 -3.18055e-015 -0 -7.95139e-016 -0 -7.95139e-016 3.97569e-016 -3.18055e-015 -1.19271e-015 0 3.18055e-015 -0 -7.95139e-016 -0 -7.95139e-016 3.97569e-016 -3.18055e-015 -1.19271e-015 0 3.18055e-015 -7.95139e-016 -3.97569e-016 -3.18055e-015 -0 -7.95139e-016 -0 -7.95139e-016 3.97569e-016 -3.18055e-015 -1.19271e-015 0 3.18055e-015 -0 -7.95139e-016 -0 -7.95139e-016 3.97569e-016 -3.18055e-015 -1.19271e-015 0 3.18055e-015 9.1441 -0.310149 7.58569 57.2351 26.5006 25.6177 0.548867 3.90762 20.3588 13.2585 -18.3738 5.78296 3.97569e-015 1.27222e-014 -7.95139e-016 -5.1684e-015 1.27222e-014 -7.95139e-016 2.10303e-007 9.65e-007 -1.3614e-006 3.97569e-016 6.36111e-015 -7.95139e-016 -2.78299e-015 6.36111e-015 6.36111e-015 4.37326e-015 9.54166e-015 -2.38542e-015 2.10303e-007 9.65e-007 -1.3614e-006 -2.78299e-015 6.36111e-015 6.36111e-015 4.37326e-015 9.54166e-015 -2.38542e-015 2.10303e-007 9.65e-007 -1.3614e-006 3.97569e-016 6.36111e-015 -7.95139e-016 -2.78299e-015 6.36111e-015 6.36111e-015 4.37326e-015 9.54166e-015 -2.38542e-015 2.10303e-007 9.65e-007 -1.3614e-006 -2.78299e-015 6.36111e-015 6.36111e-015 4.37326e-015 9.54166e-015 -2.38542e-015 2.10303e-007 9.65e-007 -1.3614e-006 -1.11194 -17.1144 14.0199 38.9191 78.5211 -36.1126 -36.5253 65.7627 58.4789 1.29534 -19.5905 -14.5983 -85.105 83.4441 82.1872 11.6583 37.8987 -15.717 
